<svg xmlns="http://www.w3.org/2000/svg" width="322.543" height="303.399" viewBox="0 0 85.34 80.274"><path d="M67.182 98.114a9.117 9.117 0 1 1-18.234 0 9.117 9.117 0 0 1 18.234 0m53.767-31.347c0 13.224-10.72 23.945-23.944 23.945S73.06 79.992 73.06 66.767s10.72-23.944 23.945-23.944 23.944 10.72 23.944 23.944m-13.507 20.414c0 19.836-16.08 35.917-35.916 35.917s-35.917-16.08-35.917-35.917c0-19.836 16.08-35.916 35.917-35.916 19.836 0 35.916 16.08 35.916 35.916" style="fill-rule:evenodd;fill:#ffffff" transform="translate(-35.61 -42.823)"/></svg>